ffmpeg started on 2026-03-29 at 16:42:34
Report written to "D:\Convert\FFMetrics\reports\ssim_report-6.txt"
Log level: 32
Command line:
ffmpeg -hide_banner -nostdin -r 24/1 -i "F:\\\xc0\xed\xe8\xec\xe5\\LightFamily\\\xce\xf1\xe2\xee\xe1\xee\xe4\xe8\xf2\xe5 \xfd\xf2\xf3 \xe2\xe5\xe4\xfc\xec\xf3\\LightFamilyDUB_\xce\xf1\xe2\xee\xe1\xee\xe4\xe8\xf2\xe5_\xfd\xf2\xf3_\xe2\xe5\xe4\xfc\xec\xf3_02_\xf1\xe5\xf0\xe8\xff_HEVC.mkv" -r 24/1 -i "F:\\\xc0\xed\xe8\xec\xe5\\LightFamily\\\xce\xf1\xe2\xee\xe1\xee\xe4\xe8\xf2\xe5 \xfd\xf2\xf3 \xe2\xe5\xe4\xfc\xec\xf3\\LightFamilyDUB_\xce\xf1\xe2\xee\xe1\xee\xe4\xe8\xf2\xe5_\xfd\xf2\xf3_\xe2\xe5\xe4\xfc\xec\xf3_02_\xf1\xe5\xf0\xe8\xff.mp4" -lavfi "[0:v]settb=AVTB,setpts=PTS-STARTPTS,format=pix_fmts=yuv420p10le,fps=24/1,scale=1920:1080:flags=lanczos:param0=3:out_range=limited:out_color_matrix=bt709:out_chroma_loc=left,setsar=1/1,setdar=(1920/1080)*(1/1),colorspace=format=yuv420p10:range=tv:primaries=bt709:trc=bt709:space=bt709:fast=0[main];[1:v]settb=AVTB,setpts=PTS-STARTPTS,format=pix_fmts=yuv420p,fps=24/1,scale=1920:1080:flags=lanczos:param0=3:out_range=limited:out_color_matrix=bt709:out_chroma_loc=left,setsar=1/1,setdar=(1920/1080)*(1/1),colorspace=format=yuv420p:range=tv:primaries=bt709:trc=bt709:space=bt709:fast=0[ref];[main][ref]ssim=eof_action=endall:stats_file='D\\:/Convert/FFMetrics/logs/ssim_logfile-6.txt'" -f null -
Input #0, matroska,webm, from 'F:\Аниме\LightFamily\Освободите эту ведьму\LightFamilyDUB_Освободите_эту_ведьму_02_серия_HEVC.mkv':
  Metadata:
    COMPATIBLE_BRANDS: mp42mp41
    MAJOR_BRAND     : mp42
    MINOR_VERSION   : 0
    ENCODER         : Lavf61.7.100
  Duration: 00:28:09.86, start: -0.021000, bitrate: 1199 kb/s
  Stream #0:0(eng): Video: hevc (Main 10), yuv420p10le(tv, bt709, progressive), 1920x1080 [SAR 1:1 DAR 16:9], 24 fps, 24 tbr, 1k tbn (default)
      Metadata:
        HANDLER_NAME    : Mainconcept Video Media Handler
        VENDOR_ID       : [0][0][0][0]
        ENCODER         : Lavc61.19.100 libx265
        BPS             : 995841
        DURATION        : 00:28:09.833666666
        NUMBER_OF_FRAMES: 40556
        NUMBER_OF_BYTES : 210350724
        _STATISTICS_WRITING_APP: mkvpropedit v94.0 ('Initiate') 64-bit
        _STATISTICS_WRITING_DATE_UTC: 2026-03-28 16:07:39
        _STATISTICS_TAGS: BPS DURATION NUMBER_OF_FRAMES NUMBER_OF_BYTES
  Stream #0:1(eng): Audio: aac (LC), 48000 Hz, stereo, fltp (default)
      Metadata:
        HANDLER_NAME    : #Mainconcept MP4 Sound Media Handler
        VENDOR_ID       : [0][0][0][0]
        ENCODER         : Lavc61.19.100 aac
        BPS             : 199173
        DURATION        : 00:28:09.834000000
        NUMBER_OF_FRAMES: 79212
        NUMBER_OF_BYTES : 42071280
        _STATISTICS_WRITING_APP: mkvpropedit v94.0 ('Initiate') 64-bit
        _STATISTICS_WRITING_DATE_UTC: 2026-03-28 16:07:39
        _STATISTICS_TAGS: BPS DURATION NUMBER_OF_FRAMES NUMBER_OF_BYTES
Input #1, mov,mp4,m4a,3gp,3g2,mj2, from 'F:\Аниме\LightFamily\Освободите эту ведьму\LightFamilyDUB_Освободите_эту_ведьму_02_серия.mp4':
  Metadata:
    major_brand     : mp42
    minor_version   : 0
    compatible_brands: mp42mp41
    creation_time   : 2026-03-12T21:59:23.000000Z
  Duration: 00:28:09.83, start: 0.000000, bitrate: 8386 kb/s
  Stream #1:0[0x1](eng): Video: h264 (Main) (avc1 / 0x31637661), yuv420p(tv, bt709, progressive), 1920x1080, 8001 kb/s, 24 fps, 24 tbr, 24k tbn (default)
      Metadata:
        creation_time   : 2026-03-12T21:59:23.000000Z
        handler_name    : Mainconcept Video Media Handler
        vendor_id       : [0][0][0][0]
        encoder         : AVC Coding
  Stream #1:1[0x2](eng): Audio: aac (LC) (mp4a / 0x6134706D), 48000 Hz, stereo, fltp, 381 kb/s (default)
      Metadata:
        creation_time   : 2026-03-12T21:59:23.000000Z
        handler_name    : #Mainconcept MP4 Sound Media Handler
        vendor_id       : [0][0][0][0]
Stream mapping:
  Stream #0:0 (hevc) -> settb:default
  Stream #1:0 (h264) -> settb:default
  ssim:default -> Stream #0:0 (wrapped_avframe)
  Stream #0:1 -> #0:1 (aac (native) -> pcm_s16le (native))
Output #0, null, to 'pipe:':
  Metadata:
    COMPATIBLE_BRANDS: mp42mp41
    MAJOR_BRAND     : mp42
    MINOR_VERSION   : 0
    encoder         : Lavf61.7.100
  Stream #0:0: Video: wrapped_avframe, yuv420p10le(tv, bt709, progressive), 1920x1080 [SAR 1:1 DAR 16:9], q=2-31, 200 kb/s, 24 fps, 24 tbn
      Metadata:
        encoder         : Lavc61.19.100 wrapped_avframe
  Stream #0:1(eng): Audio: pcm_s16le, 48000 Hz, stereo, s16, 1536 kb/s (default)
      Metadata:
        HANDLER_NAME    : #Mainconcept MP4 Sound Media Handler
        VENDOR_ID       : [0][0][0][0]
        _STATISTICS_TAGS: BPS DURATION NUMBER_OF_FRAMES NUMBER_OF_BYTES
        BPS             : 199173
        DURATION        : 00:28:09.834000000
        NUMBER_OF_FRAMES: 79212
        NUMBER_OF_BYTES : 42071280
        _STATISTICS_WRITING_APP: mkvpropedit v94.0 ('Initiate') 64-bit
        _STATISTICS_WRITING_DATE_UTC: 2026-03-28 16:07:39
        encoder         : Lavc61.19.100 pcm_s16le
frame=   70 fps=0.0 q=-0.0 size=N/A time=00:00:02.91 bitrate=N/A speed=5.75x    frame=  208 fps=201 q=-0.0 size=N/A time=00:00:08.66 bitrate=N/A speed=8.39x    frame=  367 fps=238 q=-0.0 size=N/A time=00:00:15.29 bitrate=N/A speed= 9.9x    frame=  514 fps=250 q=-0.0 size=N/A time=00:00:21.41 bitrate=N/A speed=10.4x    frame=  641 fps=250 q=-0.0 size=N/A time=00:00:26.70 bitrate=N/A speed=10.4x    frame=  726 fps=235 q=-0.0 size=N/A time=00:00:30.25 bitrate=N/A speed=9.79x    frame=  836 fps=232 q=-0.0 size=N/A time=00:00:34.83 bitrate=N/A speed=9.68x    frame=  966 fps=234 q=-0.0 size=N/A time=00:00:40.25 bitrate=N/A speed=9.75x    frame= 1121 fps=242 q=-0.0 size=N/A time=00:00:46.70 bitrate=N/A speed=10.1x    frame= 1282 fps=249 q=-0.0 size=N/A time=00:00:53.41 bitrate=N/A speed=10.4x    frame= 1441 fps=254 q=-0.0 size=N/A time=00:01:00.04 bitrate=N/A speed=10.6x    frame= 1622 fps=263 q=-0.0 size=N/A time=00:01:07.58 bitrate=N/A speed=10.9x    frame= 1794 fps=268 q=-0.0 size=N/A time=00:01:14.75 bitrate=N/A speed=11.2x    frame= 1951 fps=270 q=-0.0 size=N/A time=00:01:21.29 bitrate=N/A speed=11.3x    frame= 2118 fps=274 q=-0.0 size=N/A time=00:01:28.25 bitrate=N/A speed=11.4x    frame= 2301 fps=279 q=-0.0 size=N/A time=00:01:35.87 bitrate=N/A speed=11.6x    frame= 2453 fps=280 q=-0.0 size=N/A time=00:01:42.20 bitrate=N/A speed=11.7x    frame= 2624 fps=283 q=-0.0 size=N/A time=00:01:49.33 bitrate=N/A speed=11.8x    frame= 2774 fps=283 q=-0.0 size=N/A time=00:01:55.58 bitrate=N/A speed=11.8x    frame= 2936 fps=285 q=-0.0 size=N/A time=00:02:02.33 bitrate=N/A speed=11.9x    frame= 3101 fps=287 q=-0.0 size=N/A time=00:02:09.20 bitrate=N/A speed=11.9x    frame= 3252 fps=287 q=-0.0 size=N/A time=00:02:15.50 bitrate=N/A speed=  12x    frame= 3424 fps=289 q=-0.0 size=N/A time=00:02:22.66 bitrate=N/A speed=  12x    frame= 3591 fps=290 q=-0.0 size=N/A time=00:02:29.62 bitrate=N/A speed=12.1x    frame= 3757 fps=292 q=-0.0 size=N/A time=00:02:36.54 bitrate=N/A speed=12.2x    frame= 3942 fps=294 q=-0.0 size=N/A time=00:02:44.25 bitrate=N/A speed=12.3x    frame= 4143 fps=298 q=-0.0 size=N/A time=00:02:52.62 bitrate=N/A speed=12.4x    frame= 4328 fps=300 q=-0.0 size=N/A time=00:03:00.33 bitrate=N/A speed=12.5x    frame= 4503 fps=301 q=-0.0 size=N/A time=00:03:07.62 bitrate=N/A speed=12.6x    frame= 4680 fps=303 q=-0.0 size=N/A time=00:03:15.00 bitrate=N/A speed=12.6x    frame= 4848 fps=303 q=-0.0 size=N/A time=00:03:22.00 bitrate=N/A speed=12.6x    frame= 5022 fps=305 q=-0.0 size=N/A time=00:03:29.25 bitrate=N/A speed=12.7x    frame= 5194 fps=305 q=-0.0 size=N/A time=00:03:36.41 bitrate=N/A speed=12.7x    frame= 5373 fps=306 q=-0.0 size=N/A time=00:03:43.87 bitrate=N/A speed=12.8x    frame= 5544 fps=307 q=-0.0 size=N/A time=00:03:51.00 bitrate=N/A speed=12.8x    frame= 5714 fps=308 q=-0.0 size=N/A time=00:03:58.08 bitrate=N/A speed=12.8x    frame= 5906 fps=310 q=-0.0 size=N/A time=00:04:06.08 bitrate=N/A speed=12.9x    frame= 6091 fps=311 q=-0.0 size=N/A time=00:04:13.79 bitrate=N/A speed=  13x    frame= 6275 fps=312 q=-0.0 size=N/A time=00:04:21.45 bitrate=N/A speed=  13x    frame= 6459 fps=313 q=-0.0 size=N/A time=00:04:29.12 bitrate=N/A speed=  13x    frame= 6647 fps=314 q=-0.0 size=N/A time=00:04:36.95 bitrate=N/A speed=13.1x    frame= 6830 fps=315 q=-0.0 size=N/A time=00:04:44.58 bitrate=N/A speed=13.1x    frame= 7017 fps=317 q=-0.0 size=N/A time=00:04:52.37 bitrate=N/A speed=13.2x    frame= 7178 fps=317 q=-0.0 size=N/A time=00:04:59.08 bitrate=N/A speed=13.2x    frame= 7350 fps=317 q=-0.0 size=N/A time=00:05:06.25 bitrate=N/A speed=13.2x    frame= 7517 fps=317 q=-0.0 size=N/A time=00:05:13.20 bitrate=N/A speed=13.2x    frame= 7700 fps=318 q=-0.0 size=N/A time=00:05:20.83 bitrate=N/A speed=13.2x    frame= 7878 fps=318 q=-0.0 size=N/A time=00:05:28.25 bitrate=N/A speed=13.3x    frame= 8056 fps=319 q=-0.0 size=N/A time=00:05:35.66 bitrate=N/A speed=13.3x    frame= 8239 fps=320 q=-0.0 size=N/A time=00:05:43.29 bitrate=N/A speed=13.3x    frame= 8437 fps=321 q=-0.0 size=N/A time=00:05:51.54 bitrate=N/A speed=13.4x    frame= 8622 fps=322 q=-0.0 size=N/A time=00:05:59.25 bitrate=N/A speed=13.4x    frame= 8807 fps=322 q=-0.0 size=N/A time=00:06:06.95 bitrate=N/A speed=13.4x    frame= 8988 fps=323 q=-0.0 size=N/A time=00:06:14.50 bitrate=N/A speed=13.5x    frame= 9169 fps=323 q=-0.0 size=N/A time=00:06:22.04 bitrate=N/A speed=13.5x    frame= 9357 fps=324 q=-0.0 size=N/A time=00:06:29.87 bitrate=N/A speed=13.5x    frame= 9541 fps=325 q=-0.0 size=N/A time=00:06:37.54 bitrate=N/A speed=13.5x    frame= 9705 fps=325 q=-0.0 size=N/A time=00:06:44.37 bitrate=N/A speed=13.5x    frame= 9883 fps=325 q=-0.0 size=N/A time=00:06:51.79 bitrate=N/A speed=13.5x    frame=10066 fps=325 q=-0.0 size=N/A time=00:06:59.41 bitrate=N/A speed=13.6x    frame=10257 fps=326 q=-0.0 size=N/A time=00:07:07.37 bitrate=N/A speed=13.6x    frame=10461 fps=327 q=-0.0 size=N/A time=00:07:15.87 bitrate=N/A speed=13.6x    frame=10637 fps=327 q=-0.0 size=N/A time=00:07:23.20 bitrate=N/A speed=13.6x    frame=10823 fps=328 q=-0.0 size=N/A time=00:07:30.95 bitrate=N/A speed=13.7x    frame=11001 fps=328 q=-0.0 size=N/A time=00:07:38.37 bitrate=N/A speed=13.7x    frame=11167 fps=328 q=-0.0 size=N/A time=00:07:45.29 bitrate=N/A speed=13.7x    frame=11327 fps=328 q=-0.0 size=N/A time=00:07:51.95 bitrate=N/A speed=13.7x    frame=11491 fps=328 q=-0.0 size=N/A time=00:07:58.79 bitrate=N/A speed=13.7x    frame=11665 fps=328 q=-0.0 size=N/A time=00:08:06.04 bitrate=N/A speed=13.7x    frame=11837 fps=328 q=-0.0 size=N/A time=00:08:13.20 bitrate=N/A speed=13.7x    frame=12008 fps=328 q=-0.0 size=N/A time=00:08:20.33 bitrate=N/A speed=13.7x    frame=12156 fps=327 q=-0.0 size=N/A time=00:08:26.50 bitrate=N/A speed=13.6x    frame=12309 fps=327 q=-0.0 size=N/A time=00:08:32.87 bitrate=N/A speed=13.6x    frame=12475 fps=327 q=-0.0 size=N/A time=00:08:39.79 bitrate=N/A speed=13.6x    frame=12661 fps=327 q=-0.0 size=N/A time=00:08:47.54 bitrate=N/A speed=13.6x    frame=12848 fps=328 q=-0.0 size=N/A time=00:08:55.33 bitrate=N/A speed=13.7x    frame=13009 fps=327 q=-0.0 size=N/A time=00:09:02.04 bitrate=N/A speed=13.6x    frame=13184 fps=328 q=-0.0 size=N/A time=00:09:09.33 bitrate=N/A speed=13.6x    frame=13354 fps=328 q=-0.0 size=N/A time=00:09:16.41 bitrate=N/A speed=13.7x    frame=13530 fps=328 q=-0.0 size=N/A time=00:09:23.75 bitrate=N/A speed=13.7x    frame=13694 fps=328 q=-0.0 size=N/A time=00:09:30.58 bitrate=N/A speed=13.7x    frame=13864 fps=328 q=-0.0 size=N/A time=00:09:37.66 bitrate=N/A speed=13.7x    frame=14037 fps=328 q=-0.0 size=N/A time=00:09:44.87 bitrate=N/A speed=13.7x    frame=14213 fps=328 q=-0.0 size=N/A time=00:09:52.20 bitrate=N/A speed=13.7x    frame=14396 fps=328 q=-0.0 size=N/A time=00:09:59.83 bitrate=N/A speed=13.7x    frame=14587 fps=329 q=-0.0 size=N/A time=00:10:07.79 bitrate=N/A speed=13.7x    frame=14750 fps=329 q=-0.0 size=N/A time=00:10:14.58 bitrate=N/A speed=13.7x    frame=14937 fps=329 q=-0.0 size=N/A time=00:10:22.37 bitrate=N/A speed=13.7x    frame=15112 fps=329 q=-0.0 size=N/A time=00:10:29.66 bitrate=N/A speed=13.7x    frame=15296 fps=329 q=-0.0 size=N/A time=00:10:37.33 bitrate=N/A speed=13.7x    frame=15475 fps=330 q=-0.0 size=N/A time=00:10:44.79 bitrate=N/A speed=13.7x    frame=15644 fps=330 q=-0.0 size=N/A time=00:10:51.83 bitrate=N/A speed=13.7x    frame=15814 fps=330 q=-0.0 size=N/A time=00:10:58.91 bitrate=N/A speed=13.7x    frame=15992 fps=330 q=-0.0 size=N/A time=00:11:06.33 bitrate=N/A speed=13.7x    frame=16166 fps=330 q=-0.0 size=N/A time=00:11:13.58 bitrate=N/A speed=13.7x    frame=16348 fps=330 q=-0.0 size=N/A time=00:11:21.16 bitrate=N/A speed=13.8x    frame=16524 fps=330 q=-0.0 size=N/A time=00:11:28.50 bitrate=N/A speed=13.8x    frame=16699 fps=330 q=-0.0 size=N/A time=00:11:35.79 bitrate=N/A speed=13.8x    frame=16877 fps=330 q=-0.0 size=N/A time=00:11:43.20 bitrate=N/A speed=13.8x    frame=17054 fps=331 q=-0.0 size=N/A time=00:11:50.58 bitrate=N/A speed=13.8x    frame=17236 fps=331 q=-0.0 size=N/A time=00:11:58.16 bitrate=N/A speed=13.8x    frame=17427 fps=331 q=-0.0 size=N/A time=00:12:06.12 bitrate=N/A speed=13.8x    frame=17601 fps=331 q=-0.0 size=N/A time=00:12:13.37 bitrate=N/A speed=13.8x    frame=17774 fps=331 q=-0.0 size=N/A time=00:12:20.58 bitrate=N/A speed=13.8x    frame=17952 fps=331 q=-0.0 size=N/A time=00:12:28.00 bitrate=N/A speed=13.8x    frame=18128 fps=332 q=-0.0 size=N/A time=00:12:35.33 bitrate=N/A speed=13.8x    frame=18313 fps=332 q=-0.0 size=N/A time=00:12:43.04 bitrate=N/A speed=13.8x    frame=18499 fps=332 q=-0.0 size=N/A time=00:12:50.79 bitrate=N/A speed=13.8x    frame=18680 fps=332 q=-0.0 size=N/A time=00:12:58.33 bitrate=N/A speed=13.8x    frame=18857 fps=332 q=-0.0 size=N/A time=00:13:05.70 bitrate=N/A speed=13.8x    frame=19025 fps=332 q=-0.0 size=N/A time=00:13:12.70 bitrate=N/A speed=13.8x    frame=19182 fps=332 q=-0.0 size=N/A time=00:13:19.25 bitrate=N/A speed=13.8x    frame=19362 fps=332 q=-0.0 size=N/A time=00:13:26.75 bitrate=N/A speed=13.8x    frame=19531 fps=332 q=-0.0 size=N/A time=00:13:33.79 bitrate=N/A speed=13.8x    frame=19716 fps=332 q=-0.0 size=N/A time=00:13:41.50 bitrate=N/A speed=13.8x    frame=19900 fps=333 q=-0.0 size=N/A time=00:13:49.16 bitrate=N/A speed=13.9x    frame=20099 fps=333 q=-0.0 size=N/A time=00:13:57.45 bitrate=N/A speed=13.9x    frame=20268 fps=333 q=-0.0 size=N/A time=00:14:04.50 bitrate=N/A speed=13.9x    frame=20457 fps=333 q=-0.0 size=N/A time=00:14:12.37 bitrate=N/A speed=13.9x    frame=20646 fps=334 q=-0.0 size=N/A time=00:14:20.25 bitrate=N/A speed=13.9x    frame=20821 fps=334 q=-0.0 size=N/A time=00:14:27.54 bitrate=N/A speed=13.9x    frame=20997 fps=334 q=-0.0 size=N/A time=00:14:34.87 bitrate=N/A speed=13.9x    frame=21189 fps=334 q=-0.0 size=N/A time=00:14:42.87 bitrate=N/A speed=13.9x    frame=21375 fps=334 q=-0.0 size=N/A time=00:14:50.62 bitrate=N/A speed=13.9x    frame=21557 fps=334 q=-0.0 size=N/A time=00:14:58.20 bitrate=N/A speed=13.9x    frame=21722 fps=334 q=-0.0 size=N/A time=00:15:05.08 bitrate=N/A speed=13.9x    frame=21906 fps=334 q=-0.0 size=N/A time=00:15:12.75 bitrate=N/A speed=13.9x    frame=22081 fps=334 q=-0.0 size=N/A time=00:15:20.04 bitrate=N/A speed=13.9x    frame=22267 fps=335 q=-0.0 size=N/A time=00:15:27.79 bitrate=N/A speed=13.9x    frame=22439 fps=335 q=-0.0 size=N/A time=00:15:34.95 bitrate=N/A speed=13.9x    frame=22622 fps=335 q=-0.0 size=N/A time=00:15:42.58 bitrate=N/A speed=13.9x    frame=22812 fps=335 q=-0.0 size=N/A time=00:15:50.50 bitrate=N/A speed=  14x    frame=22998 fps=335 q=-0.0 size=N/A time=00:15:58.25 bitrate=N/A speed=  14x    frame=23182 fps=335 q=-0.0 size=N/A time=00:16:05.91 bitrate=N/A speed=  14x    frame=23373 fps=336 q=-0.0 size=N/A time=00:16:13.87 bitrate=N/A speed=  14x    frame=23552 fps=336 q=-0.0 size=N/A time=00:16:21.33 bitrate=N/A speed=  14x    frame=23737 fps=336 q=-0.0 size=N/A time=00:16:29.04 bitrate=N/A speed=  14x    frame=23927 fps=336 q=-0.0 size=N/A time=00:16:36.95 bitrate=N/A speed=  14x    frame=24105 fps=336 q=-0.0 size=N/A time=00:16:44.37 bitrate=N/A speed=  14x    frame=24302 fps=336 q=-0.0 size=N/A time=00:16:52.58 bitrate=N/A speed=  14x    frame=24492 fps=337 q=-0.0 size=N/A time=00:17:00.50 bitrate=N/A speed=  14x    frame=24684 fps=337 q=-0.0 size=N/A time=00:17:08.50 bitrate=N/A speed=  14x    frame=24875 fps=337 q=-0.0 size=N/A time=00:17:16.45 bitrate=N/A speed=14.1x    frame=25067 fps=338 q=-0.0 size=N/A time=00:17:24.45 bitrate=N/A speed=14.1x    frame=25254 fps=338 q=-0.0 size=N/A time=00:17:32.25 bitrate=N/A speed=14.1x    frame=25439 fps=338 q=-0.0 size=N/A time=00:17:39.95 bitrate=N/A speed=14.1x    frame=25611 fps=338 q=-0.0 size=N/A time=00:17:47.12 bitrate=N/A speed=14.1x    frame=25787 fps=338 q=-0.0 size=N/A time=00:17:54.45 bitrate=N/A speed=14.1x    frame=25976 fps=338 q=-0.0 size=N/A time=00:18:02.33 bitrate=N/A speed=14.1x    frame=26167 fps=338 q=-0.0 size=N/A time=00:18:10.29 bitrate=N/A speed=14.1x    frame=26354 fps=338 q=-0.0 size=N/A time=00:18:18.08 bitrate=N/A speed=14.1x    frame=26525 fps=338 q=-0.0 size=N/A time=00:18:25.20 bitrate=N/A speed=14.1x    frame=26671 fps=338 q=-0.0 size=N/A time=00:18:31.29 bitrate=N/A speed=14.1x    frame=26831 fps=338 q=-0.0 size=N/A time=00:18:37.95 bitrate=N/A speed=14.1x    frame=27030 fps=338 q=-0.0 size=N/A time=00:18:46.25 bitrate=N/A speed=14.1x    frame=27215 fps=338 q=-0.0 size=N/A time=00:18:53.95 bitrate=N/A speed=14.1x    frame=27405 fps=338 q=-0.0 size=N/A time=00:19:01.87 bitrate=N/A speed=14.1x    frame=27592 fps=339 q=-0.0 size=N/A time=00:19:09.66 bitrate=N/A speed=14.1x    frame=27771 fps=339 q=-0.0 size=N/A time=00:19:17.12 bitrate=N/A speed=14.1x    frame=27905 fps=338 q=-0.0 size=N/A time=00:19:22.70 bitrate=N/A speed=14.1x    frame=28050 fps=338 q=-0.0 size=N/A time=00:19:28.75 bitrate=N/A speed=14.1x    frame=28193 fps=337 q=-0.0 size=N/A time=00:19:34.70 bitrate=N/A speed=14.1x    frame=28335 fps=337 q=-0.0 size=N/A time=00:19:40.62 bitrate=N/A speed=  14x    frame=28474 fps=337 q=-0.0 size=N/A time=00:19:46.41 bitrate=N/A speed=  14x    frame=28623 fps=336 q=-0.0 size=N/A time=00:19:52.62 bitrate=N/A speed=  14x    frame=28746 fps=336 q=-0.0 size=N/A time=00:19:57.75 bitrate=N/A speed=  14x    frame=28928 fps=336 q=-0.0 size=N/A time=00:20:05.33 bitrate=N/A speed=  14x    frame=29120 fps=336 q=-0.0 size=N/A time=00:20:13.33 bitrate=N/A speed=  14x    frame=29293 fps=336 q=-0.0 size=N/A time=00:20:20.54 bitrate=N/A speed=  14x    frame=29475 fps=336 q=-0.0 size=N/A time=00:20:28.12 bitrate=N/A speed=  14x    frame=29662 fps=336 q=-0.0 size=N/A time=00:20:35.91 bitrate=N/A speed=  14x    frame=29851 fps=336 q=-0.0 size=N/A time=00:20:43.79 bitrate=N/A speed=  14x    frame=30039 fps=337 q=-0.0 size=N/A time=00:20:51.62 bitrate=N/A speed=  14x    frame=30222 fps=337 q=-0.0 size=N/A time=00:20:59.25 bitrate=N/A speed=  14x    frame=30405 fps=337 q=-0.0 size=N/A time=00:21:06.87 bitrate=N/A speed=  14x    frame=30589 fps=337 q=-0.0 size=N/A time=00:21:14.54 bitrate=N/A speed=  14x    frame=30758 fps=337 q=-0.0 size=N/A time=00:21:21.58 bitrate=N/A speed=  14x    frame=30944 fps=337 q=-0.0 size=N/A time=00:21:29.33 bitrate=N/A speed=  14x    frame=31129 fps=337 q=-0.0 size=N/A time=00:21:37.04 bitrate=N/A speed=  14x    frame=31298 fps=337 q=-0.0 size=N/A time=00:21:44.08 bitrate=N/A speed=  14x    frame=31463 fps=337 q=-0.0 size=N/A time=00:21:50.95 bitrate=N/A speed=  14x    frame=31653 fps=337 q=-0.0 size=N/A time=00:21:58.87 bitrate=N/A speed=  14x    frame=31837 fps=337 q=-0.0 size=N/A time=00:22:06.54 bitrate=N/A speed=  14x    frame=32017 fps=337 q=-0.0 size=N/A time=00:22:14.04 bitrate=N/A speed=14.1x    frame=32201 fps=337 q=-0.0 size=N/A time=00:22:21.70 bitrate=N/A speed=14.1x    frame=32392 fps=338 q=-0.0 size=N/A time=00:22:29.66 bitrate=N/A speed=14.1x    frame=32577 fps=338 q=-0.0 size=N/A time=00:22:37.37 bitrate=N/A speed=14.1x    frame=32761 fps=338 q=-0.0 size=N/A time=00:22:45.04 bitrate=N/A speed=14.1x    frame=32940 fps=338 q=-0.0 size=N/A time=00:22:52.50 bitrate=N/A speed=14.1x    frame=33131 fps=338 q=-0.0 size=N/A time=00:23:00.45 bitrate=N/A speed=14.1x    frame=33309 fps=338 q=-0.0 size=N/A time=00:23:07.87 bitrate=N/A speed=14.1x    frame=33481 fps=338 q=-0.0 size=N/A time=00:23:15.04 bitrate=N/A speed=14.1x    frame=33671 fps=338 q=-0.0 size=N/A time=00:23:22.95 bitrate=N/A speed=14.1x    frame=33855 fps=338 q=-0.0 size=N/A time=00:23:30.62 bitrate=N/A speed=14.1x    frame=34039 fps=338 q=-0.0 size=N/A time=00:23:38.29 bitrate=N/A speed=14.1x    frame=34219 fps=338 q=-0.0 size=N/A time=00:23:45.79 bitrate=N/A speed=14.1x    frame=34401 fps=338 q=-0.0 size=N/A time=00:23:53.37 bitrate=N/A speed=14.1x    frame=34587 fps=338 q=-0.0 size=N/A time=00:24:01.12 bitrate=N/A speed=14.1x    frame=34775 fps=339 q=-0.0 size=N/A time=00:24:08.95 bitrate=N/A speed=14.1x    frame=34966 fps=339 q=-0.0 size=N/A time=00:24:16.91 bitrate=N/A speed=14.1x    frame=35163 fps=339 q=-0.0 size=N/A time=00:24:25.12 bitrate=N/A speed=14.1x    frame=35347 fps=339 q=-0.0 size=N/A time=00:24:32.79 bitrate=N/A speed=14.1x    frame=35534 fps=339 q=-0.0 size=N/A time=00:24:40.58 bitrate=N/A speed=14.1x    frame=35728 fps=339 q=-0.0 size=N/A time=00:24:48.66 bitrate=N/A speed=14.1x    frame=35909 fps=339 q=-0.0 size=N/A time=00:24:56.20 bitrate=N/A speed=14.1x    frame=36092 fps=339 q=-0.0 size=N/A time=00:25:03.83 bitrate=N/A speed=14.1x    frame=36265 fps=339 q=-0.0 size=N/A time=00:25:11.04 bitrate=N/A speed=14.1x    frame=36458 fps=340 q=-0.0 size=N/A time=00:25:19.08 bitrate=N/A speed=14.1x    frame=36636 fps=340 q=-0.0 size=N/A time=00:25:26.50 bitrate=N/A speed=14.2x    frame=36818 fps=340 q=-0.0 size=N/A time=00:25:34.08 bitrate=N/A speed=14.2x    frame=36992 fps=340 q=-0.0 size=N/A time=00:25:41.33 bitrate=N/A speed=14.2x    frame=37190 fps=340 q=-0.0 size=N/A time=00:25:49.58 bitrate=N/A speed=14.2x    frame=37371 fps=340 q=-0.0 size=N/A time=00:25:57.12 bitrate=N/A speed=14.2x    frame=37554 fps=340 q=-0.0 size=N/A time=00:26:04.75 bitrate=N/A speed=14.2x    frame=37736 fps=340 q=-0.0 size=N/A time=00:26:12.33 bitrate=N/A speed=14.2x    frame=37915 fps=340 q=-0.0 size=N/A time=00:26:19.79 bitrate=N/A speed=14.2x    frame=38108 fps=340 q=-0.0 size=N/A time=00:26:27.83 bitrate=N/A speed=14.2x    frame=38291 fps=340 q=-0.0 size=N/A time=00:26:35.45 bitrate=N/A speed=14.2x    frame=38467 fps=340 q=-0.0 size=N/A time=00:26:42.79 bitrate=N/A speed=14.2x    frame=38633 fps=340 q=-0.0 size=N/A time=00:26:49.70 bitrate=N/A speed=14.2x    frame=38798 fps=340 q=-0.0 size=N/A time=00:26:56.58 bitrate=N/A speed=14.2x    frame=38968 fps=340 q=-0.0 size=N/A time=00:27:03.66 bitrate=N/A speed=14.2x    frame=39123 fps=340 q=-0.0 size=N/A time=00:27:10.12 bitrate=N/A speed=14.2x    frame=39285 fps=340 q=-0.0 size=N/A time=00:27:16.87 bitrate=N/A speed=14.2x    frame=39457 fps=340 q=-0.0 size=N/A time=00:27:24.04 bitrate=N/A speed=14.2x    frame=39627 fps=340 q=-0.0 size=N/A time=00:27:31.12 bitrate=N/A speed=14.2x    frame=39802 fps=340 q=-0.0 size=N/A time=00:27:38.41 bitrate=N/A speed=14.2x    frame=39965 fps=340 q=-0.0 size=N/A time=00:27:45.20 bitrate=N/A speed=14.2x    frame=40117 fps=339 q=-0.0 size=N/A time=00:27:51.54 bitrate=N/A speed=14.1x    frame=40284 fps=339 q=-0.0 size=N/A time=00:27:58.50 bitrate=N/A speed=14.1x    frame=40468 fps=339 q=-0.0 size=N/A time=00:28:06.16 bitrate=N/A speed=14.1x    [Parsed_ssim_16 @ 000002394b850800] SSIM Y:0.991334 (20.621836) U:0.994898 (22.922583) V:0.995150 (23.142634) All:0.992564 (21.286628)
[out#0/null @ 0000023935943200] video:17426KiB audio:316848KiB subtitle:0KiB other streams:0KiB global headers:0KiB muxing overhead: unknown
frame=40556 fps=340 q=-0.0 Lsize=N/A time=00:28:09.83 bitrate=N/A speed=14.1x    
